<?xml version="1.0" encoding="UTF-8" standalone="yes"?>
<!DOCTYPE svg PUBLIC "-//W3C//DTD SVG 1.1//EN" "http://www.w3.org/Graphics/SVG/1.1/DTD/svg11.dtd">

<svg width="100" height="100" viewBox="0 0 100 100" xmlns="http://www.w3.org/2000/svg" xmlns:xlink="http://www.w3.org/1999/xlink" version="1.1" baseProfile="full">
    <g transform="scale(1,-1) translate(0,-100)">
        <path d="M 45.625000 1.385498 L 270.833323 1.385498 C 270.833323 1.385498 270.833323 1.385498 270.833323 1.385498 L 270.833323 84.718828 C 270.833323 84.718828 270.833323 84.718828 270.833323 84.718828 L 4.166667 84.718828 C 4.166667 84.718828 4.166667 84.718828 4.166667 84.718828 L 4.166667 42.843829 C 4.166667 19.947025 22.728195 1.385498 45.625000 1.385498 Z" transform="scale(0.240000,0.240000) translate(70.833331,262.499990)" fill="#343838" opacity="1.000000"></path>
        <path d="M 45.625000 2.781169 L 270.833323 2.781169 C 270.833323 2.781169 270.833323 2.781169 270.833323 2.781169 L 270.833323 86.114499 C 270.833323 86.114499 270.833323 86.114499 270.833323 86.114499 L 4.166667 86.114499 C 4.166667 86.114499 4.166667 86.114499 4.166667 86.114499 L 4.166667 44.239499 C 4.166667 21.342696 22.728195 2.781169 45.625000 2.781169 Z" transform="scale(0.240000,0.240000) translate(70.833331,66.666664)" fill="#00defc" opacity="1.000000"></path>
        <path d="M 45.625000 4.166667 L 270.833323 4.166667 C 270.833323 4.166667 270.833323 4.166667 270.833323 4.166667 L 270.833323 87.499997 C 270.833323 87.499997 270.833323 87.499997 270.833323 87.499997 L 4.166667 87.499997 C 4.166667 87.499997 4.166667 87.499997 4.166667 87.499997 L 4.166667 45.624997 C 4.166667 22.728194 22.728195 4.166667 45.625000 4.166667 Z" transform="scale(0.240000,0.240000) translate(70.833331,162.499994)" fill="#008b9e" opacity="1.000000"></path>
    </g>
</svg>